<?xml version="1.0" encoding="utf-8"?>
<!-- Generator: Adobe Illustrator 24.1.2, SVG Export Plug-In . SVG Version: 6.00 Build 0)  -->
<svg version="1.1" id="Слой_1" xmlns="http://www.w3.org/2000/svg" x="0px" y="0px"
     viewBox="0 0 48 48" style="enable-background:new 0 0 48 48;" xml:space="preserve">
<style type="text/css">
	.st0{fill:#FFFFFF;}
</style>
    <path class="st0" d="M28.9,43c-0.5,0-0.9-0.2-1.3-0.5c-0.4-0.4-0.5-0.8-0.5-1.3c0-0.5,0.2-1,0.5-1.3c0.4-0.3,0.8-0.5,1.3-0.5
	c1.9,0,3.5-0.4,4.8-1.1c1.3-0.7,1.9-1.6,1.9-2.6c0-0.7-0.5-1.4-1.4-2.1s-2.2-1.3-3.9-1.7l2.8-2.8c2.1,0.7,3.7,1.6,4.7,2.7
	c1,1.1,1.5,2.4,1.5,3.8c0,2.3-1,4.1-3.1,5.4C33.9,42.4,31.5,43,28.9,43z M10.9,26.7c-2.3-0.5-4-1.3-4.9-2.3c-0.9-1-1.4-2.1-1.4-3.3
	c0-1.2,0.4-2.4,1.3-3.4s2.9-2.1,6.2-3.1c2.1-0.6,3.5-1.2,4.1-1.7c0.6-0.5,1-1.1,1-1.7c0-0.8-0.4-1.4-1-1.9c-0.7-0.5-1.8-0.8-3.2-0.8
	c-0.9,0-1.6,0.1-2.2,0.3s-1.1,0.5-1.6,1c-0.3,0.4-0.7,0.6-1.2,0.6s-0.9-0.1-1.3-0.4C6.1,9.6,5.9,9.2,5.9,8.7c0-0.5,0.1-0.9,0.4-1.3
	c0.6-0.8,1.5-1.4,2.7-1.9s2.5-0.8,3.9-0.8c2.3,0,4.2,0.6,5.7,1.7c1.4,1.1,2.1,2.7,2.1,4.7c0,1.6-0.5,2.9-1.5,3.9s-2.9,1.9-5.7,2.8
	c-2.3,0.7-3.7,1.3-4.3,1.8c-0.6,0.5-0.9,1-0.9,1.4c0,0.5,0.4,1,1.3,1.4c0.9,0.5,2.3,0.9,4.3,1.3L10.9,26.7z M38,19.1l-7.2-7.2
	L33,9.7c0.7-0.7,1.5-1.1,2.4-1.1c0.9,0,1.7,0.3,2.4,1.1l2.4,2.4c0.7,0.7,1.1,1.5,1.1,2.4c0,0.9-0.4,1.7-1.1,2.4L38,19.1z M7.4,42.5
	v-7.2l20.8-20.8l7.2,7.2L14.6,42.5H7.4z"/>
</svg>
