<?xml version="1.0" encoding="utf-8"?>
<!-- Generator: Adobe Illustrator 24.1.2, SVG Export Plug-In . SVG Version: 6.00 Build 0)  -->
<svg version="1.1" id="Слой_1" xmlns="http://www.w3.org/2000/svg" xmlns:xlink="http://www.w3.org/1999/xlink" x="0px" y="0px"
	 viewBox="0 0 48 48" style="enable-background:new 0 0 48 48;" xml:space="preserve">
<style type="text/css">
	.st0{fill:#FFFFFF;}
</style>
<path class="st0" d="M7.3,40.7c-1,0-2-0.4-2.8-1.2s-1.2-1.7-1.2-2.8V11c0-1.1,0.4-2,1.2-2.8S6.2,7,7.3,7h13.5l3.3,3.3h16.7
	c1.1,0,2,0.4,2.8,1.2c0.8,0.8,1.2,1.7,1.2,2.8H22.4L19,10.9H7.3v25.9l5.1-19.6h35.3l-5.2,19.9c-0.4,1.3-1,2.2-1.8,2.7
	c-0.8,0.6-1.9,0.8-3.2,0.8L7.3,40.7z M11.5,36.8h26.9l3.8-15.5H15.3L11.5,36.8z M11.5,36.8l3.8-15.5L11.5,36.8z M7.3,14.3v-3.3V14.3
	z"/>
</svg>
