<?xml version="1.0" encoding="utf-8"?>
<!-- Generator: Adobe Illustrator 24.1.2, SVG Export Plug-In . SVG Version: 6.00 Build 0)  -->
<svg version="1.1" id="Слой_1" xmlns="http://www.w3.org/2000/svg" xmlns:xlink="http://www.w3.org/1999/xlink" x="0px" y="0px"
	 viewBox="0 0 48 48" style="enable-background:new 0 0 48 48;" xml:space="preserve">
<style type="text/css">
	.st0{fill:#FFFFFF;}
</style>
<path class="st0" d="M26.6,45.3c-2.3,0-4.5-0.3-6.6-1c-2.2-0.6-4.1-1.7-5.8-3.1l3.4-3.5c1.3,1.1,2.7,1.9,4.2,2.3
	c1.5,0.4,3.1,0.6,4.8,0.6c3.9,0,7.3-1.4,10.1-4.2S41,30.2,41,26.2c0-3.8-1.3-7.1-4-9.9c-2.7-2.8-5.9-4.3-9.8-4.4h-2l3.4,3.4l-3,3
	l-8.7-8.7l8.7-8.7l3,3l-3.4,3.4h2c5.1,0.1,9.5,2,13.1,5.8s5.5,8.2,5.5,13.3c0,2.6-0.5,5.1-1.5,7.4c-1,2.3-2.4,4.3-4.2,6.1
	c-1.8,1.7-3.8,3.1-6.1,4.1S29.3,45.3,26.6,45.3z M12.5,38.2L0.3,25.9l12.3-12.3l12.2,12.3L12.5,38.2z"/>
</svg>
