<svg width="48" height="48" xmlns="http://www.w3.org/2000/svg">

 <g>
  <title>Layer 1</title>
  <path fill="#ffffff" id="svg_1" d="m21.35,45.3q-3.9,0 -7.35,-1.5q-3.45,-1.5 -6.075,-4.1q-2.625,-2.6 -4.125,-6.075t-1.5,-7.375q0,-7.7 5.425,-13.3q5.425,-5.6 13.125,-5.75l1.95,0l-3.4,-3.4l3.05,-2.95l8.65,8.7l-8.65,8.7l-3.05,-3l3.35,-3.35l-1.9,0q-5.8,0.25 -9.825,4.425q-4.025,4.175 -4.025,9.925q0,5.95 4.225,10.15t10.125,4.2q2.55,0 4.825,-0.625q2.275,-0.625 4.225,-2.275l3.35,3.5q-2.5,2.15 -5.75,3.125q-3.25,0.975 -6.65,0.975zm14.1,-7.1l-12.2,-12.25l12.2,-12.25l12.3,12.25l-12.3,12.25z"/>
 </g>
</svg>