<?xml version="1.0" encoding="utf-8"?>
<!-- Generator: Adobe Illustrator 24.1.2, SVG Export Plug-In . SVG Version: 6.00 Build 0)  -->
<svg version="1.1" id="Слой_1" xmlns="http://www.w3.org/2000/svg" xmlns:xlink="http://www.w3.org/1999/xlink" x="0px" y="0px"
	 viewBox="0 0 48 48" style="enable-background:new 0 0 48 48;" xml:space="preserve">
<style type="text/css">
	.st0{fill:#FFFFFF;}
</style>
<path class="st0" d="M42.8,13.6v25.2c0,1.1-0.4,2-1.2,2.8c-0.8,0.8-1.7,1.2-2.8,1.2H9.3c-1.1,0-2-0.4-2.8-1.2
	c-0.8-0.8-1.2-1.7-1.2-2.8V9.3c0-1.1,0.4-2,1.2-2.8s1.7-1.2,2.8-1.2h25.2L42.8,13.6z M38.8,15.3l-6-6.1H9.3v29.5h29.5V15.3z
	 M24,35.5c1.4,0,2.7-0.5,3.7-1.5s1.5-2.2,1.5-3.7s-0.5-2.7-1.5-3.7s-2.2-1.5-3.7-1.5s-2.7,0.5-3.7,1.5s-1.5,2.2-1.5,3.7
	c0,1.4,0.5,2.7,1.5,3.7S22.6,35.5,24,35.5z M11.9,19h17.9v-7.1H11.9V19z M9.3,15.3v23.5V9.3V15.3z"/>
</svg>
